<?xml version="1.0" standalone="no"?>
<!DOCTYPE svg PUBLIC "-//W3C//DTD SVG 20010904//EN"
 "http://www.w3.org/TR/2001/REC-SVG-20010904/DTD/svg10.dtd">
<svg version="1.0" xmlns="http://www.w3.org/2000/svg"
 width="512.000000pt" height="512.000000pt" viewBox="0 0 512.000000 512.000000"
 preserveAspectRatio="xMidYMid meet">

<g transform="translate(0.000000,512.000000) scale(0.100000,-0.100000)"
fill="#000000" stroke="none">
<path d="M2330 5029 c-311 -30 -612 -118 -899 -264 -969 -493 -1504 -1572
-1311 -2643 138 -762 624 -1418 1311 -1767 247 -126 509 -210 784 -251 167
-25 522 -25 690 -1 810 121 1500 615 1864 1336 243 481 323 1010 235 1541 -68
404 -242 792 -512 1135 -73 92 -287 306 -382 381 -511 403 -1148 594 -1780
533z m615 -164 c746 -119 1382 -590 1715 -1270 161 -330 234 -644 234 -1015 0
-271 -31 -476 -110 -722 -101 -313 -244 -558 -496 -851 l-27 -32 -462 461
-461 461 91 849 c50 467 91 857 91 867 0 10 -11 29 -25 42 l-24 25 -911 0
-911 0 -23 -24 -24 -23 -312 312 -312 312 73 63 c334 288 703 463 1134 541
215 38 535 40 760 4z m-1214 -2491 c60 -555 108 -1017 109 -1027 0 -10 11 -29
25 -42 l24 -25 666 0 c435 0 673 4 685 10 32 17 37 38 55 210 10 91 21 168 24
172 4 4 190 -176 415 -401 l409 -409 -99 -82 c-331 -275 -720 -449 -1155 -517
-159 -24 -500 -24 -659 1 -495 76 -930 292 -1284 636 -380 369 -609 830 -687
1380 -16 114 -16 442 0 560 63 459 238 863 521 1204 l82 99 381 -381 380 -380
108 -1008z m1618 1129 c0 -10 -10 -105 -22 -212 l-22 -194 -59 -32 c-32 -17
-85 -53 -118 -79 -98 -78 -157 -101 -263 -101 -107 0 -166 23 -255 99 -68 58
-171 111 -247 126 -33 7 -97 10 -150 8 l-92 -5 -175 177 c-140 141 -176 182
-176 203 l0 27 790 0 c746 0 790 -1 789 -17z m-1456 -391 l78 -78 -68 -53
c-37 -28 -69 -48 -70 -44 -7 22 -28 253 -23 253 3 0 40 -35 83 -78z"/>
</g>
</svg>
