<?xml version="1.0" standalone="no"?>
<!DOCTYPE svg PUBLIC "-//W3C//DTD SVG 20010904//EN"
 "http://www.w3.org/TR/2001/REC-SVG-20010904/DTD/svg10.dtd">
<svg version="1.0" xmlns="http://www.w3.org/2000/svg"
 width="512.000000pt" height="512.000000pt" viewBox="0 0 512.000000 512.000000"
 preserveAspectRatio="xMidYMid meet">

<g transform="translate(0.000000,512.000000) scale(0.100000,-0.100000)"
fill="#000000" stroke="none">
<path d="M2330 5110 c-494 -48 -950 -230 -1350 -538 -195 -150 -448 -432 -594
-662 -63 -99 -186 -351 -230 -471 -49 -134 -102 -340 -128 -499 -31 -195 -31
-565 0 -760 45 -276 116 -498 237 -745 132 -269 269 -460 489 -681 221 -220
412 -357 681 -489 247 -121 469 -192 745 -237 195 -31 565 -31 760 0 276 45
498 116 745 237 269 132 460 269 681 489 220 221 357 412 489 681 88 179 132
296 180 476 63 240 78 371 78 649 0 278 -15 409 -78 649 -48 180 -92 297 -180
476 -132 269 -269 460 -489 681 -221 220 -412 357 -681 489 -246 121 -474 193
-740 235 -147 23 -475 34 -615 20z m620 -278 c378 -72 700 -212 1000 -435 122
-91 356 -325 447 -447 227 -305 369 -634 440 -1025 26 -144 26 -586 0 -730
-71 -391 -213 -720 -440 -1025 -91 -122 -325 -356 -447 -447 -305 -227 -634
-369 -1025 -440 -144 -26 -586 -26 -730 0 -391 71 -720 213 -1025 440 -122 91
-356 325 -447 447 -227 305 -369 634 -440 1025 -26 144 -26 586 0 730 43 234
104 427 196 620 121 254 250 435 456 640 205 206 386 335 640 456 234 112 435
169 750 213 17 2 140 3 275 1 191 -3 268 -8 350 -23z"/>
<path d="M2340 4005 c-410 -75 -739 -386 -740 -700 0 -88 16 -131 65 -181 54
-54 130 -79 216 -71 120 11 173 59 266 241 104 206 180 262 364 273 182 11
323 -57 382 -186 17 -37 22 -65 22 -141 0 -86 -3 -101 -30 -154 -38 -75 -118
-156 -275 -281 -145 -115 -238 -201 -286 -266 -74 -102 -106 -255 -75 -362 17
-60 78 -130 133 -152 62 -25 176 -23 234 5 58 28 84 64 137 187 24 55 54 115
67 133 13 18 102 91 199 163 387 288 501 453 501 727 0 411 -297 699 -790 765
-130 18 -291 18 -390 0z"/>
<path d="M2448 1740 c-160 -27 -275 -171 -266 -335 12 -245 282 -383 491 -252
100 62 152 166 145 290 -10 192 -180 328 -370 297z"/>
</g>
</svg>
